<?xml version="1.0" encoding="UTF-8"?>
<svg xmlns="http://www.w3.org/2000/svg" xmlns:xlink="http://www.w3.org/1999/xlink" viewBox="0 0 96 96" width="96px" height="96px">
<defs>
<linearGradient id="linear0" gradientUnits="userSpaceOnUse" x1="19.26663" y1="117.575119" x2="146.666702" y2="117.575119" gradientTransform="matrix(0.55814,0,0,0.55814,0,0)">
<stop offset="0" style="stop-color:rgb(14.901961%,51.764709%,100%);stop-opacity:1;"/>
<stop offset="0.28" style="stop-color:rgb(12.156863%,48.235294%,96.470588%);stop-opacity:1;"/>
<stop offset="0.742" style="stop-color:rgb(4.705882%,38.431373%,86.666667%);stop-opacity:1;"/>
<stop offset="0.994" style="stop-color:rgb(0%,32.156864%,80.000001%);stop-opacity:1;"/>
</linearGradient>
<linearGradient id="linear1" gradientUnits="userSpaceOnUse" x1="25.3333" y1="50.841751" x2="152.733368" y2="50.841751" gradientTransform="matrix(0.55814,0,0,0.55814,0,0)">
<stop offset="0" style="stop-color:rgb(0%,32.156864%,80.000001%);stop-opacity:1;"/>
<stop offset="0.044" style="stop-color:rgb(0.784314%,33.333334%,81.176472%);stop-opacity:1;"/>
<stop offset="0.665" style="stop-color:rgb(10.980392%,46.666667%,94.901961%);stop-opacity:1;"/>
<stop offset="1" style="stop-color:rgb(14.901961%,51.764709%,100%);stop-opacity:1;"/>
</linearGradient>
</defs>
<g id="surface261154641">
<path style=" stroke:none;fill-rule:nonzero;fill:rgb(20%,20%,20%);fill-opacity:1;" d="M 12 96 C 5.371094 96 0 90.628906 0 84 L 0 12 C 0 5.371094 5.371094 0 12 0 L 84 0 C 90.628906 0 96 5.371094 96 12 L 96 84 C 96 90.628906 90.628906 96 84 96 Z M 12 96 "/>
<path style=" stroke:none;fill-rule:nonzero;fill:url(#linear0);" d="M 13.445312 66.554688 C 12.675781 67.800781 11.816406 69.253906 11.082031 70.40625 C 10.429688 71.511719 10.78125 72.9375 11.875 73.613281 L 27.21875 83.046875 C 28.328125 83.730469 29.78125 83.386719 30.46875 82.28125 C 30.472656 82.269531 30.480469 82.257812 30.488281 82.246094 C 31.101562 81.222656 31.890625 79.890625 32.753906 78.460938 C 38.832031 68.4375 44.945312 69.664062 55.96875 74.925781 L 71.183594 82.152344 C 72.359375 82.710938 73.769531 82.214844 74.328125 81.035156 C 74.339844 81.015625 74.347656 80.996094 74.355469 80.972656 L 81.664062 64.46875 C 82.179688 63.289062 81.652344 61.914062 80.480469 61.378906 C 77.273438 59.867188 70.886719 56.863281 65.136719 54.089844 C 44.460938 44.054688 26.886719 44.703125 13.445312 66.554688 Z M 13.445312 66.554688 "/>
<path style=" stroke:none;fill-rule:nonzero;fill:url(#linear1);" d="M 82.558594 27.476562 C 83.324219 26.226562 84.183594 24.777344 84.917969 23.625 C 85.570312 22.523438 85.21875 21.097656 84.125 20.421875 L 68.792969 11.003906 C 67.710938 10.277344 66.246094 10.5625 65.519531 11.640625 C 65.488281 11.6875 65.457031 11.734375 65.429688 11.78125 C 64.820312 12.804688 64.027344 14.136719 63.167969 15.5625 C 57.089844 25.570312 50.980469 24.34375 39.964844 19.09375 L 24.8125 11.910156 C 23.632812 11.351562 22.226562 11.851562 21.667969 13.023438 C 21.660156 13.042969 21.648438 13.066406 21.636719 13.085938 L 14.335938 29.574219 C 13.820312 30.75 14.347656 32.125 15.519531 32.660156 C 18.726562 34.164062 25.105469 37.167969 30.851562 39.9375 C 51.5625 49.945312 69.125 49.273438 82.558594 27.476562 Z M 82.558594 27.476562 "/>
</g>
</svg>
