<?xml version="1.0" encoding="UTF-8"?>
<svg xmlns="http://www.w3.org/2000/svg" xmlns:xlink="http://www.w3.org/1999/xlink" viewBox="0 0 128 128" width="128px" height="128px">
<g id="surface263809560">
<path style=" stroke:none;fill-rule:nonzero;fill:rgb(20%,20%,20%);fill-opacity:1;" d="M 16 128 C 7.164062 128 0 120.835938 0 112 L 0 16 C 0 7.164062 7.164062 0 16 0 L 112 0 C 120.835938 0 128 7.164062 128 16 L 128 112 C 128 120.835938 120.835938 128 112 128 Z M 16 128 "/>
<path style=" stroke:none;fill-rule:nonzero;fill:rgb(100%,100%,100%);fill-opacity:1;" d="M 64 22.398438 C 41.027344 22.398438 22.398438 41.027344 22.398438 64 C 22.398438 83.644531 36.019531 100.097656 54.328125 104.457031 C 53.378906 104.230469 52.441406 103.980469 51.519531 103.691406 L 51.519531 94.160156 C 51.519531 94.160156 49.960938 94.679688 47.878906 94.679688 C 42.0625 94.679688 39.644531 89.488281 39.039062 86.878906 C 38.671875 85.292969 37.71875 83.785156 36.691406 82.867188 C 35.460938 81.769531 34.886719 81.769531 34.878906 81.394531 C 34.863281 80.609375 35.933594 80.640625 36.441406 80.640625 C 39.039062 80.640625 41.011719 83.40625 41.925781 84.835938 C 44.195312 88.367188 46.628906 88.960938 47.878906 88.960938 C 49.441406 88.960938 50.789062 88.726562 51.714844 88.277344 C 52.144531 85.257812 53.488281 82.566406 55.679688 80.640625 C 45.925781 78.691406 39.039062 73.09375 39.039062 64 C 39.039062 59.316406 40.921875 55.007812 44.054688 51.53125 C 43.734375 50.625 43.199219 48.789062 43.199219 45.800781 C 43.199219 43.824219 43.335938 41.398438 44.238281 39.039062 C 44.238281 39.039062 50.171875 39.082031 55.769531 44.378906 C 58.351562 43.628906 61.113281 43.199219 64 43.199219 C 66.886719 43.199219 69.648438 43.628906 72.230469 44.378906 C 77.828125 39.082031 83.761719 39.039062 83.761719 39.039062 C 84.667969 41.398438 84.800781 43.824219 84.800781 45.800781 C 84.800781 49.023438 84.371094 50.902344 84.109375 51.714844 C 87.144531 55.160156 88.960938 59.398438 88.960938 64 C 88.960938 73.09375 82.074219 78.691406 72.320312 80.640625 C 74.925781 82.929688 76.480469 86.261719 76.480469 90 L 76.480469 103.691406 C 75.558594 103.980469 74.621094 104.230469 73.671875 104.457031 C 91.980469 100.097656 105.601562 83.644531 105.601562 64 C 105.601562 41.027344 86.972656 22.398438 64 22.398438 Z M 66.902344 105.488281 C 65.941406 105.554688 64.976562 105.601562 64 105.601562 C 64.976562 105.601562 65.941406 105.554688 66.902344 105.488281 Z M 73.257812 104.554688 C 71.394531 104.976562 69.488281 105.273438 67.539062 105.441406 C 69.488281 105.273438 71.394531 104.976562 73.257812 104.554688 Z M 64 105.601562 C 63.023438 105.601562 62.058594 105.554688 61.097656 105.488281 C 62.058594 105.554688 63.023438 105.601562 64 105.601562 Z M 60.460938 105.441406 C 58.511719 105.273438 56.601562 104.976562 54.742188 104.554688 C 56.605469 104.976562 58.511719 105.273438 60.460938 105.441406 Z M 60.460938 105.441406 "/>
</g>
</svg>
