<?xml version="1.0" encoding="UTF-8"?>
<svg xmlns="http://www.w3.org/2000/svg" xmlns:xlink="http://www.w3.org/1999/xlink" viewBox="0 0 96 96" width="96px" height="96px">
<defs>
<linearGradient id="linear0" gradientUnits="userSpaceOnUse" x1="86" y1="33.45937" x2="86" y2="138.540634" gradientTransform="matrix(0.55814,0,0,0.55814,0,0)">
<stop offset="0" style="stop-color:rgb(10.196079%,42.745098%,100%);stop-opacity:1;"/>
<stop offset="1" style="stop-color:rgb(78.431374%,13.333334%,100%);stop-opacity:1;"/>
</linearGradient>
<linearGradient id="linear1" gradientUnits="userSpaceOnUse" x1="119.123444" y1="38.028118" x2="119.123444" y2="133.971878" gradientTransform="matrix(0.55814,0,0,0.55814,0,0)">
<stop offset="0" style="stop-color:rgb(54.11765%,70.588237%,100%);stop-opacity:1;"/>
<stop offset="1" style="stop-color:rgb(89.411765%,57.254905%,100%);stop-opacity:1;"/>
</linearGradient>
</defs>
<g id="surface261123022">
<path style=" stroke:none;fill-rule:nonzero;fill:rgb(20%,20%,20%);fill-opacity:1;" d="M 12 96 C 5.371094 96 0 90.628906 0 84 L 0 12 C 0 5.371094 5.371094 0 12 0 L 84 0 C 90.628906 0 96 5.371094 96 12 L 96 84 C 96 90.628906 90.628906 96 84 96 Z M 12 96 "/>
<path style=" stroke:none;fill-rule:nonzero;fill:url(#linear0);" d="M 72.226562 18.675781 L 60.75 18.675781 C 57.933594 18.675781 55.648438 20.957031 55.648438 23.773438 L 55.648438 37.800781 L 41.625 37.800781 C 38.808594 37.800781 36.523438 40.082031 36.523438 42.898438 L 36.523438 55.648438 L 23.773438 55.648438 C 20.957031 55.648438 18.675781 57.933594 18.675781 60.75 L 18.675781 72.226562 C 18.675781 75.042969 20.957031 77.324219 23.773438 77.324219 L 72.226562 77.324219 C 75.042969 77.324219 77.324219 75.042969 77.324219 72.226562 L 77.324219 23.773438 C 77.324219 20.957031 75.042969 18.675781 72.226562 18.675781 Z M 55.648438 74.773438 L 23.773438 74.773438 C 22.371094 74.773438 21.226562 73.628906 21.226562 72.226562 L 21.226562 60.75 C 21.226562 59.347656 22.371094 58.199219 23.773438 58.199219 L 37.800781 58.199219 C 38.5 58.199219 39.074219 57.625 39.074219 56.925781 L 39.074219 42.898438 C 39.074219 41.496094 40.222656 40.351562 41.625 40.351562 L 55.648438 40.351562 Z M 74.773438 72.226562 C 74.773438 73.628906 73.628906 74.773438 72.226562 74.773438 L 58.199219 74.773438 L 58.199219 23.773438 C 58.199219 22.371094 59.347656 21.226562 60.75 21.226562 L 72.226562 21.226562 C 73.628906 21.226562 74.773438 22.371094 74.773438 23.773438 Z M 74.773438 72.226562 "/>
<path style=" stroke:none;fill-rule:nonzero;fill:url(#linear1);" d="M 74.773438 23.773438 L 74.773438 72.226562 C 74.773438 73.628906 73.628906 74.773438 72.226562 74.773438 L 58.199219 74.773438 L 58.199219 23.773438 C 58.199219 22.371094 59.347656 21.226562 60.75 21.226562 L 72.226562 21.226562 C 73.628906 21.226562 74.773438 22.371094 74.773438 23.773438 Z M 74.773438 23.773438 "/>
</g>
</svg>
