<?xml version="1.0" encoding="UTF-8"?>
<svg xmlns="http://www.w3.org/2000/svg" xmlns:xlink="http://www.w3.org/1999/xlink" viewBox="0 0 96 96" width="96px" height="96px">
<g id="surface261556591">
<path style=" stroke:none;fill-rule:nonzero;fill:rgb(20%,20%,20%);fill-opacity:1;" d="M 12 96 C 5.371094 96 0 90.628906 0 84 L 0 12 C 0 5.371094 5.371094 0 12 0 L 84 0 C 90.628906 0 96 5.371094 96 12 L 96 84 C 96 90.628906 90.628906 96 84 96 Z M 12 96 "/>
<path style=" stroke:none;fill-rule:nonzero;fill:rgb(14.901961%,51.764709%,100%);fill-opacity:1;" d="M 47.722656 61.324219 L 34.574219 48 L 47.722656 34.675781 L 47.722656 7.199219 L 10.179688 45.253906 C 8.683594 46.769531 8.683594 49.230469 10.179688 50.746094 L 47.722656 88.800781 C 47.722656 88.800781 53.472656 84.914062 53.472656 75.199219 C 53.175781 70.042969 51.144531 65.148438 47.722656 61.324219 Z M 47.722656 61.324219 "/>
<path style=" stroke:none;fill-rule:nonzero;fill:rgb(11.372549%,47.058824%,94.901961%);fill-opacity:1;" d="M 36.628906 45.410156 L 36.878906 45.664062 L 47.722656 34.675781 L 47.722656 7.199219 L 27.402344 27.792969 C 28.929688 34.375 32.109375 40.441406 36.628906 45.410156 Z M 36.628906 45.410156 "/>
<path style=" stroke:none;fill-rule:nonzero;fill:rgb(7.058824%,41.568628%,89.803922%);fill-opacity:1;" d="M 39.402344 42.726562 L 39.59375 42.917969 L 47.726562 34.679688 L 47.726562 7.199219 L 30.726562 24.425781 C 31.792969 31.253906 34.808594 37.617188 39.402344 42.726562 Z M 39.402344 42.726562 "/>
<path style=" stroke:none;fill-rule:nonzero;fill:rgb(4.313726%,37.64706%,85.490197%);fill-opacity:1;" d="M 47.722656 34.675781 L 47.722656 7.199219 L 34.304688 20.800781 C 34.597656 28.019531 37.433594 34.890625 42.300781 40.171875 Z M 47.722656 34.675781 "/>
<path style=" stroke:none;fill-rule:nonzero;fill:rgb(0.392157%,32.941177%,80.784315%);fill-opacity:1;" d="M 38.136719 20.800781 C 38.136719 30.019531 44.667969 37.0625 45.007812 37.421875 L 47.722656 34.675781 L 47.722656 7.199219 L 38.480469 16.570312 C 38.25 17.96875 38.136719 19.382812 38.136719 20.800781 Z M 38.136719 20.800781 "/>
<path style=" stroke:none;fill-rule:nonzero;fill:rgb(14.117648%,50.980395%,99.215686%);fill-opacity:1;" d="M 47.722656 34.675781 L 60.867188 48 L 47.722656 61.324219 L 47.722656 88.800781 L 85.261719 50.746094 C 86.761719 49.230469 86.761719 46.769531 85.261719 45.253906 L 47.722656 7.199219 C 47.722656 7.199219 41.972656 11.085938 41.972656 20.800781 C 42.269531 25.957031 44.296875 30.851562 47.722656 34.675781 Z M 47.722656 34.675781 "/>
<path style=" stroke:none;fill-rule:nonzero;fill:rgb(11.372549%,47.058824%,94.901961%);fill-opacity:1;" d="M 58.8125 50.589844 L 58.5625 50.335938 L 47.722656 61.324219 L 47.722656 88.800781 L 68.039062 68.207031 C 66.511719 61.625 63.335938 55.558594 58.8125 50.589844 Z M 58.8125 50.589844 "/>
<path style=" stroke:none;fill-rule:nonzero;fill:rgb(7.058824%,41.568628%,89.803922%);fill-opacity:1;" d="M 56.039062 53.273438 L 55.847656 53.082031 L 47.71875 61.320312 L 47.71875 88.800781 L 64.714844 71.574219 C 63.648438 64.746094 60.632812 58.386719 56.039062 53.273438 Z M 56.039062 53.273438 "/>
<path style=" stroke:none;fill-rule:nonzero;fill:rgb(4.313726%,37.64706%,85.490197%);fill-opacity:1;" d="M 47.722656 61.324219 L 47.722656 88.800781 L 61.140625 75.199219 C 60.847656 67.980469 58.007812 61.109375 53.144531 55.828125 Z M 47.722656 61.324219 "/>
<path style=" stroke:none;fill-rule:nonzero;fill:rgb(0.392157%,32.941177%,80.784315%);fill-opacity:1;" d="M 57.304688 75.199219 C 57.304688 65.980469 50.777344 58.9375 50.433594 58.578125 L 47.722656 61.324219 L 47.722656 88.800781 L 56.964844 79.429688 C 57.191406 78.03125 57.308594 76.617188 57.304688 75.199219 Z M 57.304688 75.199219 "/>
<path style=" stroke:none;fill-rule:nonzero;fill:rgb(14.901961%,51.764709%,100%);fill-opacity:1;" d="M 47.722656 61.324219 L 34.574219 48 L 13.21875 48 L 13.21875 53.828125 L 47.722656 88.800781 C 47.722656 88.800781 53.472656 84.914062 53.472656 75.199219 C 53.175781 70.042969 51.144531 65.148438 47.722656 61.324219 Z M 47.722656 61.324219 "/>
</g>
</svg>
