<?xml version="1.0" encoding="UTF-8"?>
<svg xmlns="http://www.w3.org/2000/svg" xmlns:xlink="http://www.w3.org/1999/xlink" viewBox="0 0 96 96" width="96px" height="96px">
<g id="surface260723384">
<path style=" stroke:none;fill-rule:nonzero;fill:rgb(20%,20%,20%);fill-opacity:1;" d="M 12 96 C 5.371094 96 0 90.628906 0 84 L 0 12 C 0 5.371094 5.371094 0 12 0 L 84 0 C 90.628906 0 96 5.371094 96 12 L 96 84 C 96 90.628906 90.628906 96 84 96 Z M 12 96 "/>
<path style=" stroke:none;fill-rule:nonzero;fill:rgb(90.196079%,29.019609%,9.803922%);fill-opacity:1;" d="M 19.101562 27.601562 L 56.5 14 L 76.898438 19.101562 L 76.898438 76.898438 L 56.5 82 L 19.101562 68.398438 L 56.5 73.5 L 56.5 24.199219 L 32.699219 29.300781 L 32.699219 63.300781 L 19.101562 68.398438 Z M 19.101562 27.601562 "/>
</g>
</svg>
