<?xml version="1.0" encoding="UTF-8"?>
<svg xmlns="http://www.w3.org/2000/svg" xmlns:xlink="http://www.w3.org/1999/xlink" viewBox="0 0 96 96" width="96px" height="96px">
<g id="surface261632164">
<path style=" stroke:none;fill-rule:nonzero;fill:rgb(20%,20%,20%);fill-opacity:1;" d="M 12 96 C 5.371094 96 0 90.628906 0 84 L 0 12 C 0 5.371094 5.371094 0 12 0 L 84 0 C 90.628906 0 96 5.371094 96 12 L 96 84 C 96 90.628906 90.628906 96 84 96 Z M 12 96 "/>
<path style=" stroke:none;fill-rule:nonzero;fill:rgb(5.098039%,27.843139%,63.137257%);fill-opacity:1;" d="M 43.378906 74.671875 L 53.242188 64.789062 C 54.359375 63.667969 54.359375 61.855469 53.242188 60.734375 L 27.152344 34.59375 C 26.035156 33.472656 24.222656 33.472656 23.105469 34.59375 L 13.242188 44.476562 C 12.125 45.597656 12.125 47.410156 13.242188 48.53125 L 39.335938 74.671875 C 40.449219 75.792969 42.261719 75.792969 43.378906 74.671875 Z M 43.378906 74.671875 "/>
<path style=" stroke:none;fill-rule:nonzero;fill:rgb(16.078432%,71.372551%,96.470588%);fill-opacity:1;" d="M 39.417969 74.742188 L 29.40625 64.710938 C 28.328125 63.632812 28.328125 61.882812 29.40625 60.804688 L 66.878906 23.257812 C 67.957031 22.179688 69.699219 22.179688 70.773438 23.257812 L 80.789062 33.289062 C 81.863281 34.367188 81.863281 36.117188 80.789062 37.195312 L 43.3125 74.742188 C 42.238281 75.820312 40.496094 75.820312 39.417969 74.742188 Z M 39.417969 74.742188 "/>
</g>
</svg>
