<?xml version="1.0" encoding="UTF-8"?>
<svg xmlns="http://www.w3.org/2000/svg" xmlns:xlink="http://www.w3.org/1999/xlink" viewBox="0 0 96 96" width="96px" height="96px">
<g id="surface261627038">
<path style=" stroke:none;fill-rule:nonzero;fill:rgb(20%,20%,20%);fill-opacity:1;" d="M 12 96 C 5.371094 96 0 90.628906 0 84 L 0 12 C 0 5.371094 5.371094 0 12 0 L 84 0 C 90.628906 0 96 5.371094 96 12 L 96 84 C 96 90.628906 90.628906 96 84 96 Z M 12 96 "/>
<path style=" stroke:none;fill-rule:nonzero;fill:rgb(1.176471%,60.784316%,89.803922%);fill-opacity:1;" d="M 67.609375 29.175781 C 65.527344 29.175781 63.546875 29.578125 61.714844 30.28125 C 59.484375 26.789062 55.585938 24.46875 51.136719 24.46875 C 47.832031 24.46875 44.835938 25.757812 42.59375 27.84375 C 39.867188 24.816406 35.925781 22.898438 31.527344 22.898438 C 23.296875 22.898438 16.625 29.570312 16.625 37.804688 C 16.625 39.046875 16.792969 40.246094 17.078125 41.398438 C 13.945312 43.839844 11.917969 47.640625 11.917969 51.921875 C 11.917969 59.285156 17.890625 65.257812 25.253906 65.257812 C 25.902344 65.257812 26.535156 65.195312 27.15625 65.105469 C 29.21875 69.808594 33.90625 73.101562 39.371094 73.101562 C 44.332031 73.101562 48.652344 70.382812 50.949219 66.367188 C 52.007812 66.65625 53.121094 66.824219 54.273438 66.824219 C 58.386719 66.824219 62.023438 64.839844 64.3125 61.789062 C 65.378906 62.003906 66.480469 62.117188 67.609375 62.117188 C 76.707031 62.117188 84.082031 54.742188 84.082031 45.648438 C 84.082031 36.550781 76.707031 29.175781 67.609375 29.175781 Z M 67.609375 29.175781 "/>
<path style=" stroke:none;fill-rule:nonzero;fill:rgb(100%,100%,100%);fill-opacity:1;" d="M 35.171875 49.570312 C 35.242188 49.570312 35.292969 49.511719 35.292969 49.4375 C 35.292969 49.511719 35.242188 49.570312 35.171875 49.570312 Z M 44.082031 47.894531 C 44.121094 47.894531 44.15625 47.910156 44.167969 47.917969 C 44.15625 47.910156 44.121094 47.894531 44.085938 47.894531 C 44.085938 47.894531 44.082031 47.894531 44.082031 47.894531 Z M 21.546875 47.890625 C 21.582031 47.890625 21.617188 47.902344 21.640625 47.914062 C 21.617188 47.90625 21.585938 47.886719 21.550781 47.886719 C 21.550781 47.886719 21.546875 47.890625 21.546875 47.890625 Z M 48.199219 44.71875 C 48.171875 44.78125 48.125 44.789062 48.085938 44.789062 C 48.089844 44.789062 48.089844 44.792969 48.097656 44.792969 C 48.136719 44.789062 48.175781 44.773438 48.199219 44.71875 Z M 35.171875 40.15625 C 35.242188 40.15625 35.292969 40.214844 35.292969 40.285156 C 35.292969 40.214844 35.242188 40.15625 35.171875 40.15625 Z M 43.855469 45.152344 C 43.855469 45.792969 44.1875 46.191406 44.652344 46.460938 C 44.1875 46.191406 43.855469 45.792969 43.855469 45.152344 Z M 70.160156 49.144531 C 70.199219 49.238281 70.109375 49.28125 70.109375 49.28125 C 70.109375 49.28125 70.199219 49.238281 70.160156 49.144531 Z M 23.773438 43.292969 C 24.171875 43.292969 24.5625 43.347656 24.925781 43.441406 C 24.5625 43.347656 24.171875 43.292969 23.773438 43.292969 Z M 25.667969 44.71875 C 25.640625 44.78125 25.59375 44.789062 25.554688 44.789062 C 25.5625 44.789062 25.5625 44.792969 25.570312 44.792969 C 25.605469 44.789062 25.644531 44.773438 25.667969 44.71875 Z M 65.5625 48.257812 C 65.664062 48.421875 65.785156 48.574219 65.921875 48.71875 C 66.058594 48.859375 66.210938 48.980469 66.382812 49.089844 C 66.210938 48.980469 66.058594 48.859375 65.921875 48.71875 C 65.785156 48.578125 65.664062 48.421875 65.5625 48.257812 Z M 69.695312 44.542969 C 69.675781 44.542969 69.65625 44.539062 69.65625 44.539062 C 69.65625 44.539062 69.671875 44.546875 69.691406 44.546875 C 69.691406 44.546875 69.695312 44.542969 69.695312 44.542969 Z M 69.699219 48.296875 C 69.699219 48.296875 69.726562 48.292969 69.753906 48.289062 C 69.75 48.289062 69.75 48.289062 69.75 48.289062 C 69.722656 48.289062 69.699219 48.296875 69.699219 48.296875 Z M 69.699219 48.296875 "/>
<path style=" stroke:none;fill-rule:nonzero;fill:rgb(100%,100%,100%);fill-opacity:1;" d="M 21.152344 48.726562 C 21.105469 48.835938 21.167969 48.855469 21.183594 48.875 C 21.320312 48.964844 21.457031 49.03125 21.59375 49.105469 C 22.328125 49.464844 23.027344 49.570312 23.75 49.570312 C 25.234375 49.570312 26.152344 48.84375 26.152344 47.675781 L 26.152344 47.652344 C 26.152344 46.574219 25.113281 46.179688 24.140625 45.894531 L 24.015625 45.859375 C 23.28125 45.640625 22.648438 45.449219 22.648438 45.003906 L 22.648438 44.980469 C 22.648438 44.601562 23.019531 44.320312 23.59375 44.320312 C 24.230469 44.320312 24.984375 44.515625 25.472656 44.761719 C 25.472656 44.761719 25.617188 44.847656 25.667969 44.722656 C 25.695312 44.652344 25.945312 44.039062 25.96875 43.972656 C 26 43.902344 25.949219 43.847656 25.898438 43.820312 C 25.339844 43.507812 24.570312 43.292969 23.773438 43.292969 L 23.628906 43.296875 C 22.273438 43.296875 21.328125 44.050781 21.328125 45.128906 L 21.328125 45.152344 C 21.328125 46.292969 22.371094 46.660156 23.347656 46.917969 L 23.503906 46.964844 C 24.21875 47.164062 24.832031 47.339844 24.832031 47.800781 L 24.832031 47.824219 C 24.832031 48.246094 24.433594 48.5625 23.789062 48.5625 C 23.539062 48.5625 22.742188 48.558594 21.882812 48.054688 C 21.777344 48 21.71875 47.960938 21.640625 47.914062 C 21.597656 47.890625 21.488281 47.847656 21.445312 47.976562 Z M 43.679688 48.726562 C 43.636719 48.835938 43.695312 48.855469 43.710938 48.875 C 43.847656 48.964844 43.984375 49.03125 44.125 49.105469 C 44.859375 49.464844 45.554688 49.570312 46.28125 49.570312 C 47.761719 49.570312 48.683594 48.84375 48.683594 47.675781 L 48.683594 47.652344 C 48.683594 46.574219 47.644531 46.179688 46.671875 45.894531 L 46.542969 45.859375 C 45.808594 45.640625 45.179688 45.449219 45.179688 45.003906 L 45.179688 44.980469 C 45.179688 44.601562 45.546875 44.320312 46.121094 44.320312 C 46.757812 44.320312 47.515625 44.515625 48.003906 44.761719 C 48.003906 44.761719 48.148438 44.847656 48.199219 44.722656 C 48.226562 44.652344 48.472656 44.039062 48.5 43.972656 C 48.527344 43.902344 48.476562 43.847656 48.429688 43.820312 C 47.871094 43.507812 47.101562 43.292969 46.304688 43.292969 L 46.160156 43.296875 C 44.804688 43.296875 43.855469 44.050781 43.855469 45.128906 L 43.855469 45.152344 C 43.855469 46.292969 44.902344 46.660156 45.878906 46.917969 L 46.035156 46.964844 C 46.75 47.164062 47.363281 47.339844 47.363281 47.800781 L 47.363281 47.824219 C 47.363281 48.246094 46.964844 48.5625 46.320312 48.5625 C 46.070312 48.5625 45.273438 48.558594 44.414062 48.054688 C 44.308594 48 44.246094 47.960938 44.167969 47.914062 C 44.140625 47.898438 44.015625 47.855469 43.972656 47.976562 Z M 59.710938 45.207031 C 59.589844 44.824219 59.398438 44.488281 59.148438 44.210938 C 58.898438 43.929688 58.578125 43.703125 58.199219 43.542969 C 57.820312 43.375 57.375 43.292969 56.875 43.292969 C 56.375 43.292969 55.929688 43.375 55.550781 43.539062 C 55.171875 43.703125 54.855469 43.929688 54.601562 44.210938 C 54.351562 44.488281 54.160156 44.824219 54.042969 45.203125 C 53.921875 45.582031 53.859375 45.996094 53.859375 46.4375 C 53.859375 46.875 53.921875 47.289062 54.042969 47.667969 C 54.160156 48.046875 54.351562 48.382812 54.601562 48.664062 C 54.855469 48.945312 55.175781 49.167969 55.550781 49.328125 C 55.929688 49.484375 56.375 49.570312 56.875 49.570312 C 57.375 49.570312 57.820312 49.488281 58.199219 49.328125 C 58.578125 49.167969 58.898438 48.945312 59.148438 48.664062 C 59.398438 48.386719 59.589844 48.050781 59.710938 47.667969 C 59.832031 47.289062 59.894531 46.875 59.894531 46.4375 C 59.894531 46 59.832031 45.585938 59.710938 45.207031 M 58.472656 46.4375 C 58.472656 47.101562 58.339844 47.625 58.078125 47.996094 C 57.816406 48.359375 57.421875 48.539062 56.875 48.539062 C 56.324219 48.539062 55.933594 48.359375 55.675781 47.996094 C 55.417969 47.625 55.285156 47.101562 55.285156 46.4375 C 55.285156 45.773438 55.417969 45.25 55.675781 44.882812 C 55.933594 44.523438 56.328125 44.347656 56.875 44.347656 C 57.425781 44.347656 57.816406 44.523438 58.078125 44.882812 C 58.339844 45.25 58.472656 45.773438 58.472656 46.4375 M 69.855469 48.367188 C 69.816406 48.253906 69.699219 48.296875 69.699219 48.296875 C 69.519531 48.359375 69.328125 48.417969 69.125 48.449219 C 68.917969 48.476562 68.691406 48.496094 68.449219 48.496094 C 67.851562 48.496094 67.375 48.328125 67.035156 48.003906 C 66.695312 47.675781 66.503906 47.148438 66.503906 46.4375 C 66.507812 45.789062 66.675781 45.300781 66.980469 44.925781 C 67.28125 44.554688 67.738281 44.367188 68.351562 44.367188 C 68.859375 44.367188 69.25 44.421875 69.65625 44.539062 C 69.65625 44.539062 69.753906 44.578125 69.796875 44.460938 C 69.90625 44.183594 69.984375 43.984375 70.101562 43.679688 C 70.136719 43.589844 70.054688 43.554688 70.023438 43.542969 C 69.863281 43.484375 69.488281 43.390625 69.203125 43.347656 C 68.933594 43.3125 68.621094 43.292969 68.273438 43.292969 C 67.753906 43.292969 67.292969 43.375 66.898438 43.539062 C 66.5 43.703125 66.167969 43.925781 65.902344 44.207031 C 65.636719 44.488281 65.433594 44.824219 65.300781 45.203125 C 65.164062 45.582031 65.097656 45.996094 65.097656 46.4375 C 65.097656 47.386719 65.375 48.15625 65.921875 48.71875 C 66.46875 49.285156 67.289062 49.570312 68.359375 49.570312 C 68.996094 49.570312 69.640625 49.449219 70.113281 49.28125 C 70.113281 49.28125 70.199219 49.238281 70.160156 49.144531 Z M 76.179688 44.988281 C 76.074219 44.621094 75.8125 44.25 75.644531 44.082031 C 75.375 43.8125 75.109375 43.625 74.851562 43.519531 C 74.507812 43.382812 74.101562 43.292969 73.652344 43.292969 C 73.128906 43.292969 72.65625 43.375 72.273438 43.542969 C 71.886719 43.710938 71.5625 43.941406 71.308594 44.226562 C 71.054688 44.507812 70.863281 44.847656 70.742188 45.234375 C 70.621094 45.613281 70.558594 46.03125 70.558594 46.46875 C 70.558594 46.917969 70.621094 47.335938 70.75 47.710938 C 70.875 48.085938 71.078125 48.421875 71.355469 48.695312 C 71.628906 48.972656 71.984375 49.191406 72.40625 49.34375 C 72.828125 49.492188 73.339844 49.570312 73.925781 49.570312 C 75.132812 49.566406 75.769531 49.316406 76.03125 49.183594 C 76.078125 49.15625 76.121094 49.117188 76.066406 48.996094 L 75.792969 48.285156 C 75.753906 48.179688 75.636719 48.21875 75.636719 48.21875 C 75.335938 48.320312 74.910156 48.507812 73.917969 48.503906 C 73.269531 48.503906 72.789062 48.328125 72.488281 48.046875 C 72.179688 47.765625 72.027344 47.347656 72 46.757812 L 76.183594 46.761719 C 76.183594 46.761719 76.292969 46.761719 76.304688 46.660156 C 76.308594 46.617188 76.449219 45.863281 76.179688 44.988281 M 72.019531 45.800781 C 72.078125 45.429688 72.1875 45.121094 72.359375 44.882812 C 72.613281 44.523438 73.003906 44.320312 73.554688 44.320312 C 74.101562 44.320312 74.464844 44.523438 74.726562 44.882812 C 74.898438 45.125 74.972656 45.441406 75.003906 45.800781 Z M 42.4375 44.988281 C 42.332031 44.621094 42.070312 44.25 41.902344 44.082031 C 41.632812 43.8125 41.367188 43.625 41.105469 43.519531 C 40.765625 43.382812 40.355469 43.292969 39.910156 43.292969 C 39.386719 43.292969 38.914062 43.375 38.527344 43.542969 C 38.144531 43.710938 37.820312 43.941406 37.566406 44.226562 C 37.308594 44.507812 37.121094 44.847656 37 45.234375 C 36.875 45.613281 36.816406 46.03125 36.816406 46.46875 C 36.816406 46.917969 36.878906 47.335938 37.003906 47.710938 C 37.132812 48.085938 37.335938 48.421875 37.609375 48.695312 C 37.886719 48.972656 38.238281 49.191406 38.664062 49.34375 C 39.082031 49.492188 39.59375 49.570312 40.179688 49.570312 C 41.390625 49.566406 42.027344 49.316406 42.289062 49.183594 C 42.335938 49.15625 42.378906 49.117188 42.324219 48.996094 L 42.050781 48.285156 C 42.007812 48.179688 41.894531 48.21875 41.894531 48.21875 C 41.59375 48.320312 41.167969 48.507812 40.175781 48.503906 C 39.527344 48.503906 39.046875 48.328125 38.746094 48.046875 C 38.433594 47.765625 38.28125 47.347656 38.257812 46.757812 L 42.441406 46.761719 C 42.441406 46.761719 42.550781 46.761719 42.5625 46.660156 C 42.566406 46.617188 42.703125 45.863281 42.4375 44.988281 M 38.277344 45.800781 C 38.335938 45.429688 38.445312 45.121094 38.613281 44.882812 C 38.871094 44.523438 39.261719 44.320312 39.8125 44.320312 C 40.359375 44.320312 40.722656 44.523438 40.984375 44.882812 C 41.15625 45.125 41.230469 45.441406 41.261719 45.800781 Z M 30.632812 45.617188 C 30.464844 45.609375 30.246094 45.601562 29.980469 45.601562 C 29.621094 45.601562 29.277344 45.640625 28.949219 45.722656 C 28.625 45.804688 28.332031 45.929688 28.078125 46.097656 C 27.824219 46.269531 27.621094 46.484375 27.472656 46.738281 C 27.324219 46.996094 27.246094 47.296875 27.246094 47.632812 C 27.246094 47.976562 27.3125 48.273438 27.4375 48.515625 C 27.566406 48.761719 27.75 48.964844 27.984375 49.125 C 28.214844 49.28125 28.503906 49.394531 28.835938 49.464844 C 29.164062 49.53125 29.539062 49.570312 29.945312 49.570312 C 30.375 49.570312 30.800781 49.535156 31.214844 49.46875 C 31.628906 49.40625 32.128906 49.3125 32.269531 49.28125 C 32.40625 49.25 32.5625 49.210938 32.5625 49.210938 C 32.664062 49.1875 32.65625 49.085938 32.65625 49.085938 L 32.65625 45.539062 C 32.65625 44.761719 32.433594 44.1875 31.992188 43.828125 C 31.550781 43.472656 30.902344 43.292969 30.070312 43.292969 C 29.753906 43.292969 29.25 43.332031 28.949219 43.390625 C 28.949219 43.390625 28.035156 43.554688 27.660156 43.828125 C 27.660156 43.828125 27.578125 43.875 27.621094 43.980469 L 27.917969 44.71875 C 27.957031 44.8125 28.054688 44.78125 28.054688 44.78125 C 28.054688 44.78125 28.085938 44.769531 28.125 44.746094 C 28.929688 44.34375 29.945312 44.355469 29.945312 44.355469 C 30.398438 44.355469 30.746094 44.4375 30.980469 44.605469 C 31.207031 44.769531 31.324219 45.011719 31.324219 45.527344 L 31.324219 45.695312 C 30.964844 45.644531 30.632812 45.617188 30.632812 45.617188 M 28.96875 48.34375 C 28.804688 48.222656 28.78125 48.191406 28.730469 48.113281 C 28.644531 47.992188 28.605469 47.824219 28.605469 47.609375 C 28.605469 47.265625 28.726562 47.023438 28.976562 46.859375 C 28.976562 46.859375 29.339844 46.566406 30.191406 46.578125 C 30.789062 46.582031 31.324219 46.667969 31.324219 46.667969 L 31.324219 48.429688 C 31.324219 48.429688 30.792969 48.535156 30.195312 48.566406 C 29.347656 48.613281 28.964844 48.339844 28.96875 48.34375 M 64.878906 43.558594 C 64.910156 43.46875 64.84375 43.425781 64.816406 43.414062 C 64.746094 43.390625 64.390625 43.316406 64.117188 43.300781 C 63.589844 43.269531 63.296875 43.351562 63.035156 43.464844 C 62.777344 43.578125 62.488281 43.757812 62.332031 43.964844 L 62.328125 43.476562 C 62.328125 43.410156 62.277344 43.355469 62.210938 43.355469 L 61.136719 43.355469 C 61.066406 43.355469 61.015625 43.410156 61.015625 43.476562 L 61.015625 49.449219 C 61.015625 49.515625 61.074219 49.570312 61.144531 49.570312 L 62.242188 49.570312 C 62.3125 49.570312 62.367188 49.515625 62.367188 49.449219 L 62.367188 46.464844 C 62.367188 46.0625 62.414062 45.664062 62.507812 45.414062 C 62.597656 45.167969 62.722656 44.96875 62.875 44.828125 C 63.027344 44.683594 63.199219 44.585938 63.390625 44.527344 C 63.585938 44.472656 63.800781 44.453125 63.949219 44.453125 C 64.171875 44.453125 64.410156 44.507812 64.410156 44.507812 C 64.492188 44.515625 64.535156 44.46875 64.5625 44.398438 C 64.636719 44.214844 64.84375 43.667969 64.878906 43.558594 "/>
<path style=" stroke:none;fill-rule:nonzero;fill:rgb(100%,100%,100%);fill-opacity:1;" d="M 54.59375 40.324219 C 54.460938 40.28125 54.339844 40.253906 54.179688 40.226562 C 54.019531 40.195312 53.828125 40.179688 53.613281 40.179688 C 52.855469 40.179688 52.257812 40.394531 51.839844 40.816406 C 51.425781 41.238281 51.140625 41.875 51 42.714844 L 50.921875 43.289062 L 49.972656 43.289062 C 49.972656 43.289062 49.855469 43.285156 49.832031 43.410156 L 49.675781 44.28125 C 49.667969 44.363281 49.703125 44.414062 49.8125 44.414062 L 50.738281 44.414062 L 49.800781 49.648438 C 49.726562 50.070312 49.644531 50.417969 49.550781 50.679688 C 49.457031 50.941406 49.367188 51.132812 49.257812 51.277344 C 49.152344 51.410156 49.050781 51.511719 48.875 51.570312 C 48.730469 51.617188 48.566406 51.644531 48.382812 51.644531 C 48.28125 51.644531 48.148438 51.625 48.046875 51.605469 C 47.945312 51.585938 47.894531 51.5625 47.820312 51.53125 C 47.820312 51.53125 47.714844 51.492188 47.667969 51.601562 C 47.632812 51.691406 47.390625 52.367188 47.359375 52.449219 C 47.332031 52.535156 47.371094 52.597656 47.425781 52.617188 C 47.546875 52.660156 47.640625 52.6875 47.804688 52.726562 C 48.039062 52.78125 48.234375 52.785156 48.417969 52.785156 C 48.804688 52.785156 49.15625 52.734375 49.445312 52.628906 C 49.738281 52.519531 49.992188 52.335938 50.21875 52.089844 C 50.460938 51.820312 50.613281 51.539062 50.761719 51.152344 C 50.90625 50.773438 51.027344 50.300781 51.128906 49.746094 L 52.070312 44.414062 L 53.449219 44.414062 C 53.449219 44.414062 53.5625 44.421875 53.585938 44.292969 L 53.742188 43.425781 C 53.753906 43.339844 53.71875 43.289062 53.605469 43.289062 L 52.269531 43.289062 C 52.273438 43.257812 52.363281 42.496094 52.515625 42.054688 C 52.582031 41.863281 52.703125 41.710938 52.808594 41.605469 C 52.910156 41.503906 53.03125 41.433594 53.160156 41.390625 C 53.292969 41.347656 53.445312 41.324219 53.609375 41.324219 C 53.734375 41.324219 53.859375 41.339844 53.953125 41.359375 C 54.082031 41.386719 54.132812 41.402344 54.167969 41.410156 C 54.304688 41.453125 54.320312 41.414062 54.347656 41.347656 L 54.667969 40.46875 C 54.703125 40.375 54.625 40.335938 54.59375 40.324219 M 35.292969 49.4375 C 35.292969 49.511719 35.242188 49.570312 35.171875 49.570312 L 34.0625 49.570312 C 33.992188 49.570312 33.945312 49.511719 33.945312 49.4375 L 33.945312 40.285156 C 33.945312 40.214844 33.996094 40.15625 34.0625 40.15625 L 35.171875 40.15625 C 35.242188 40.15625 35.292969 40.214844 35.292969 40.285156 Z M 35.292969 49.4375 "/>
</g>
</svg>
