<?xml version="1.0" encoding="UTF-8"?>
<svg xmlns="http://www.w3.org/2000/svg" xmlns:xlink="http://www.w3.org/1999/xlink" viewBox="0 0 96 96" width="96px" height="96px">
<g id="surface261145743">
<path style=" stroke:none;fill-rule:nonzero;fill:rgb(20%,20%,20%);fill-opacity:1;" d="M 12 96 C 5.371094 96 0 90.628906 0 84 L 0 12 C 0 5.371094 5.371094 0 12 0 L 84 0 C 90.628906 0 96 5.371094 96 12 L 96 84 C 96 90.628906 90.628906 96 84 96 Z M 12 96 "/>
<path style=" stroke:none;fill-rule:nonzero;fill:rgb(10.196079%,13.725491%,49.411765%);fill-opacity:1;" d="M 57.199219 63.808594 L 57.199219 60.410156 C 64 60.410156 69.609375 54.800781 69.609375 48 C 69.609375 41.199219 64 35.589844 57.199219 35.589844 L 57.199219 32.191406 C 65.871094 32.191406 73.011719 39.328125 73.011719 48 C 73.011719 56.671875 66.039062 63.808594 57.199219 63.808594 Z M 57.199219 63.808594 "/>
<path style=" stroke:none;fill-rule:nonzero;fill:rgb(5.098039%,27.843139%,63.137257%);fill-opacity:1;" d="M 76.75 48 C 76.75 51.738281 73.691406 54.800781 69.949219 54.800781 C 66.210938 54.800781 63.148438 51.738281 63.148438 48 C 63.148438 44.261719 66.210938 41.199219 69.949219 41.199219 C 73.691406 41.199219 76.75 44.261719 76.75 48 Z M 61.449219 34.398438 C 61.449219 38.140625 58.390625 41.199219 54.648438 41.199219 C 50.910156 41.199219 47.851562 38.140625 47.851562 34.398438 C 47.851562 30.660156 50.910156 27.601562 54.648438 27.601562 C 58.390625 27.601562 61.449219 30.660156 61.449219 34.398438 Z M 61.449219 61.601562 C 61.449219 65.339844 58.390625 68.398438 54.648438 68.398438 C 50.910156 68.398438 47.851562 65.339844 47.851562 61.601562 C 47.851562 57.859375 50.910156 54.800781 54.648438 54.800781 C 58.390625 54.800781 61.449219 57.859375 61.449219 61.601562 Z M 61.449219 61.601562 "/>
<path style=" stroke:none;fill-rule:nonzero;fill:rgb(11.764706%,53.333336%,89.803922%);fill-opacity:1;" d="M 52.949219 78.601562 L 17.25 71.800781 L 17.25 24.199219 L 52.949219 17.398438 Z M 52.949219 78.601562 "/>
<path style=" stroke:none;fill-rule:nonzero;fill:rgb(100%,100%,100%);fill-opacity:1;" d="M 41.898438 57.691406 C 41.390625 58.710938 40.710938 59.390625 39.691406 59.898438 C 38.671875 60.410156 37.820312 60.921875 36.628906 61.089844 C 35.441406 61.429688 34.25 61.601562 32.890625 61.601562 C 31.53125 61.601562 30.171875 61.429688 28.980469 61.261719 C 27.789062 61.089844 26.769531 60.75 25.75 60.238281 L 25.75 54.800781 C 26.769531 55.648438 27.789062 56.328125 28.980469 56.671875 C 30.171875 57.011719 31.359375 57.351562 32.550781 57.351562 C 33.230469 57.351562 33.910156 57.351562 34.421875 57.179688 C 34.929688 57.011719 35.441406 56.839844 35.78125 56.671875 C 36.121094 56.5 36.460938 56.160156 36.628906 55.820312 C 36.800781 55.480469 36.96875 55.140625 36.96875 54.800781 C 36.96875 54.289062 36.800781 53.949219 36.628906 53.441406 C 36.289062 53.101562 35.949219 52.761719 35.441406 52.421875 C 34.929688 52.078125 34.421875 51.738281 33.738281 51.570312 C 33.058594 51.230469 32.378906 50.890625 31.53125 50.71875 C 29.660156 49.871094 28.128906 49.019531 27.28125 47.828125 C 26.261719 46.640625 25.921875 45.28125 25.921875 43.578125 C 25.921875 42.21875 26.261719 41.199219 26.769531 40.351562 C 27.28125 39.5 27.960938 38.648438 28.808594 38.140625 C 29.660156 37.460938 30.679688 37.121094 31.871094 36.78125 C 33.058594 36.441406 34.25 36.269531 35.609375 36.269531 C 36.96875 36.269531 37.988281 36.269531 39.011719 36.441406 C 40.03125 36.609375 40.878906 36.78125 41.730469 37.121094 L 41.730469 42.21875 C 41.390625 41.878906 40.878906 41.710938 40.371094 41.539062 C 39.859375 41.371094 39.351562 41.199219 38.839844 41.03125 C 38.328125 40.859375 37.820312 40.859375 37.308594 40.691406 C 36.800781 40.519531 36.289062 40.519531 35.78125 40.519531 C 35.101562 40.519531 34.589844 40.519531 34.078125 40.691406 C 33.570312 40.859375 33.058594 41.03125 32.71875 41.199219 C 32.378906 41.371094 32.039062 41.710938 31.871094 42.050781 C 31.699219 42.390625 31.53125 42.730469 31.53125 43.070312 C 31.53125 43.410156 31.699219 43.921875 31.871094 44.261719 C 32.039062 44.601562 32.378906 44.941406 32.71875 45.109375 C 33.058594 45.449219 33.570312 45.621094 34.25 45.960938 C 34.761719 46.300781 35.441406 46.46875 36.121094 46.808594 C 37.140625 47.148438 37.988281 47.660156 38.839844 48.171875 C 39.691406 48.679688 40.371094 49.191406 40.878906 49.699219 C 41.390625 50.210938 41.898438 50.890625 42.238281 51.738281 C 42.578125 52.421875 42.75 53.441406 42.75 54.289062 C 42.75 55.648438 42.410156 56.839844 41.898438 57.691406 Z M 41.898438 57.691406 "/>
</g>
</svg>
