<?xml version="1.0" encoding="UTF-8"?>
<svg xmlns="http://www.w3.org/2000/svg" xmlns:xlink="http://www.w3.org/1999/xlink" viewBox="0 0 96 96" width="96px" height="96px">
<g id="surface261160330">
<path style=" stroke:none;fill-rule:nonzero;fill:rgb(20%,20%,20%);fill-opacity:1;" d="M 12 96 C 5.371094 96 0 90.628906 0 84 L 0 12 C 0 5.371094 5.371094 0 12 0 L 84 0 C 90.628906 0 96 5.371094 96 12 L 96 84 C 96 90.628906 90.628906 96 84 96 Z M 12 96 "/>
<path style=" stroke:none;fill-rule:nonzero;fill:rgb(0%,47.450981%,41.960785%);fill-opacity:1;" d="M 13.335938 63.949219 L 16.109375 63.949219 L 16.109375 53.714844 L 19.960938 62.464844 C 20.4375 63.554688 21.085938 63.941406 22.363281 63.941406 C 23.636719 63.941406 24.261719 63.554688 24.738281 62.464844 L 28.589844 53.9375 L 28.589844 63.949219 L 31.363281 63.949219 L 31.363281 53.464844 C 31.363281 52.457031 30.960938 51.96875 30.136719 51.71875 C 28.160156 51.097656 26.835938 51.632812 26.234375 52.976562 L 22.285156 61.875 L 18.460938 52.976562 C 17.882812 51.632812 16.535156 51.097656 14.558594 51.71875 C 13.734375 51.96875 13.332031 52.457031 13.332031 53.464844 L 13.332031 63.945312 L 13.335938 63.945312 Z M 13.335938 63.949219 "/>
<path style=" stroke:none;fill-rule:nonzero;fill:rgb(0%,47.450981%,41.960785%);fill-opacity:1;" d="M 32.746094 55.628906 L 35.519531 55.628906 L 35.519531 61.484375 C 35.5 61.773438 35.613281 62.542969 36.953125 62.5625 C 37.632812 62.574219 41.027344 62.5625 41.066406 62.5625 L 41.066406 55.628906 L 43.839844 55.628906 C 43.851562 55.628906 43.839844 64.25 43.839844 64.285156 C 43.855469 66.410156 41.199219 66.6875 39.980469 66.722656 L 32.75 66.722656 L 32.75 65.335938 C 32.765625 65.335938 39.664062 65.335938 39.683594 65.335938 C 41.253906 65.167969 41.070312 64.304688 41.070312 64.042969 L 41.070312 63.949219 L 36.71875 63.949219 C 34.304688 63.925781 32.769531 62.863281 32.75 61.652344 C 32.746094 61.539062 32.804688 55.679688 32.746094 55.628906 Z M 32.746094 55.628906 "/>
<path style=" stroke:none;fill-rule:nonzero;fill:rgb(96.078432%,49.803922%,9.019608%);fill-opacity:1;" d="M 45.226562 63.949219 L 52.171875 63.949219 C 53.082031 63.949219 53.964844 63.757812 54.667969 63.429688 C 55.835938 62.890625 56.320312 62.164062 56.320312 61.210938 L 56.320312 59.234375 C 56.320312 57.101562 53.675781 57.015625 52.160156 57.015625 L 49.386719 57.015625 C 48.296875 57.015625 48.128906 56.355469 48 55.628906 L 48 54.242188 C 48.128906 53.6875 48.371094 52.941406 49.332031 52.855469 C 50.449219 52.855469 56.320312 52.855469 56.320312 52.855469 L 56.320312 51.46875 L 49.722656 51.46875 C 48.632812 51.46875 45.226562 51.597656 45.226562 54.242188 L 45.226562 55.957031 C 45.226562 57.167969 46.292969 58.15625 48.605469 58.402344 C 48.863281 58.417969 49.125 58.433594 49.382812 58.433594 C 49.382812 58.433594 52.078125 58.382812 52.15625 58.402344 C 53.71875 58.402344 53.542969 59.613281 53.542969 59.789062 L 53.542969 61.171875 C 53.542969 61.363281 53.5 62.558594 52.140625 62.558594 C 52.039062 62.558594 45.222656 62.558594 45.222656 62.558594 L 45.222656 63.949219 Z M 45.226562 63.949219 "/>
<path style=" stroke:none;fill-rule:nonzero;fill:rgb(96.078432%,49.803922%,9.019608%);fill-opacity:1;" d="M 71.574219 61.117188 C 71.574219 62.789062 72.519531 63.730469 75.027344 63.917969 C 75.261719 63.933594 75.5 63.945312 75.734375 63.945312 L 82.667969 63.945312 L 82.667969 62.558594 L 76.261719 62.558594 C 74.828125 62.558594 74.347656 61.960938 74.347656 61.101562 L 74.347656 51.46875 L 71.574219 51.46875 Z M 71.574219 61.117188 "/>
<path style=" stroke:none;fill-rule:nonzero;fill:rgb(96.078432%,49.803922%,9.019608%);fill-opacity:1;" d="M 57.683594 61.175781 L 57.683594 54.242188 C 57.683594 52.769531 58.40625 51.75 60.453125 51.46875 L 67.160156 51.46875 C 69.203125 51.75 70.164062 52.765625 70.164062 54.242188 L 70.164062 61.148438 C 70.164062 62.34375 69.851562 62.984375 68.839844 63.402344 L 70.988281 65.332031 L 67.871094 65.332031 L 66.324219 63.945312 L 64.507812 63.945312 L 61.421875 63.964844 C 60.976562 63.964844 60.507812 63.902344 59.988281 63.761719 C 58.4375 63.335938 57.683594 62.523438 57.683594 61.175781 Z M 60.457031 61.175781 C 60.597656 61.851562 61.140625 62.5625 62.105469 62.5625 L 64.796875 62.5625 L 63.253906 61.175781 L 66.394531 61.175781 L 67.144531 61.871094 C 67.144531 61.871094 67.414062 61.652344 67.414062 61.175781 C 67.414062 60.699219 67.390625 54.242188 67.390625 54.242188 C 67.25 53.613281 66.613281 52.855469 65.675781 52.855469 L 62.105469 52.855469 C 61.023438 52.855469 60.457031 53.648438 60.457031 54.382812 Z M 60.457031 61.175781 "/>
<path style=" stroke:none;fill-rule:nonzero;fill:rgb(0%,47.450981%,41.960785%);fill-opacity:1;" d="M 80.066406 50.007812 C 78.578125 49.964844 77.441406 50.105469 76.46875 50.511719 C 76.191406 50.628906 75.75 50.632812 75.703125 50.980469 C 75.855469 51.140625 75.878906 51.378906 76 51.574219 C 76.230469 51.949219 76.625 52.453125 76.972656 52.714844 C 77.355469 53.003906 77.75 53.3125 78.160156 53.5625 C 78.886719 54.007812 79.703125 54.261719 80.402344 54.707031 C 80.816406 54.96875 81.226562 55.300781 81.632812 55.59375 C 81.832031 55.742188 81.964844 55.96875 82.222656 56.058594 C 82.222656 56.046875 82.222656 56.03125 82.222656 56.019531 C 82.089844 55.84375 82.050781 55.605469 81.925781 55.425781 C 81.742188 55.242188 81.5625 55.058594 81.378906 54.875 C 80.839844 54.160156 80.15625 53.53125 79.429688 53.011719 C 78.851562 52.597656 77.554688 52.035156 77.3125 51.363281 C 77.296875 51.347656 77.285156 51.335938 77.269531 51.316406 C 77.679688 51.273438 78.160156 51.125 78.539062 51.023438 C 79.175781 50.851562 79.742188 50.894531 80.402344 50.726562 C 80.695312 50.640625 80.992188 50.558594 81.289062 50.472656 C 81.289062 50.414062 81.289062 50.359375 81.289062 50.304688 C 80.957031 49.960938 80.71875 49.511719 80.359375 49.203125 C 79.410156 48.394531 78.375 47.589844 77.308594 46.914062 C 76.71875 46.542969 75.988281 46.300781 75.363281 45.984375 C 75.152344 45.875 74.78125 45.820312 74.644531 45.644531 C 74.3125 45.226562 74.136719 44.695312 73.882812 44.207031 C 73.351562 43.183594 72.828125 42.066406 72.359375 40.992188 C 72.035156 40.257812 71.828125 39.53125 71.425781 38.871094 C 69.503906 35.710938 67.433594 33.804688 64.230469 31.929688 C 63.546875 31.53125 62.726562 31.375 61.859375 31.167969 C 61.390625 31.140625 60.925781 31.109375 60.460938 31.082031 C 60.175781 30.960938 59.878906 30.613281 59.613281 30.445312 C 58.550781 29.773438 55.824219 28.316406 55.039062 30.234375 C 54.542969 31.445312 55.78125 32.625 56.226562 33.238281 C 56.535156 33.667969 56.933594 34.152344 57.15625 34.636719 C 57.304688 34.957031 57.328125 35.273438 57.453125 35.609375 C 57.761719 36.441406 58.25 37.386719 58.648438 38.152344 C 58.847656 38.539062 59.070312 38.949219 59.324219 39.292969 C 59.480469 39.507812 59.746094 39.601562 59.792969 39.929688 C 59.53125 40.296875 59.515625 40.863281 59.367188 41.328125 C 58.707031 43.414062 58.957031 46.007812 59.917969 47.550781 C 60.214844 48.023438 60.910156 49.042969 61.867188 48.652344 C 62.703125 48.3125 62.515625 47.253906 62.753906 46.324219 C 62.808594 46.113281 62.773438 45.957031 62.882812 45.816406 C 62.882812 45.832031 62.882812 45.84375 62.882812 45.859375 C 63.136719 46.367188 63.386719 46.875 63.644531 47.382812 C 64.207031 48.292969 65.210938 49.242188 66.054688 49.882812 C 66.496094 50.214844 66.839844 50.789062 67.410156 50.984375 C 67.410156 50.96875 67.410156 50.957031 67.410156 50.941406 C 67.394531 50.941406 67.382812 50.941406 67.367188 50.941406 C 67.257812 50.769531 67.085938 50.695312 66.945312 50.558594 C 66.613281 50.234375 66.242188 49.832031 65.96875 49.457031 C 65.199219 48.410156 64.515625 47.261719 63.894531 46.070312 C 63.601562 45.5 63.339844 44.871094 63.089844 44.292969 C 62.996094 44.070312 62.996094 43.730469 62.796875 43.613281 C 62.519531 44.039062 62.121094 44.382812 61.90625 44.882812 C 61.570312 45.6875 61.523438 46.664062 61.398438 47.679688 C 61.324219 47.703125 61.359375 47.6875 61.316406 47.71875 C 60.726562 47.578125 60.519531 46.972656 60.296875 46.449219 C 59.742188 45.132812 59.640625 43.011719 60.128906 41.496094 C 60.253906 41.105469 60.824219 39.871094 60.597656 39.507812 C 60.484375 39.144531 60.121094 38.933594 59.917969 38.660156 C 59.667969 38.316406 59.417969 37.867188 59.242188 37.472656 C 58.789062 36.445312 58.359375 35.25 57.878906 34.210938 C 57.652344 33.714844 57.265625 33.214844 56.949219 32.773438 C 56.597656 32.285156 56.203125 31.925781 55.929688 31.335938 C 55.835938 31.125 55.703125 30.789062 55.847656 30.574219 C 55.890625 30.425781 55.957031 30.367188 56.101562 30.320312 C 56.347656 30.128906 57.03125 30.378906 57.285156 30.488281 C 57.964844 30.769531 58.53125 31.039062 59.105469 31.417969 C 59.382812 31.601562 59.660156 31.957031 59.996094 32.054688 C 60.121094 32.054688 60.25 32.054688 60.375 32.054688 C 60.972656 32.191406 61.640625 32.097656 62.195312 32.265625 C 63.179688 32.566406 64.0625 33.03125 64.863281 33.535156 C 67.304688 35.078125 69.296875 37.269531 70.664062 39.886719 C 70.882812 40.308594 70.980469 40.710938 71.171875 41.15625 C 71.5625 42.058594 72.054688 42.988281 72.441406 43.867188 C 72.828125 44.746094 73.207031 45.632812 73.753906 46.367188 C 74.042969 46.75 75.15625 46.957031 75.660156 47.171875 C 76.011719 47.320312 76.59375 47.476562 76.929688 47.679688 C 77.570312 48.066406 78.191406 48.527344 78.789062 48.949219 C 79.097656 49.160156 80.019531 49.625 80.066406 50.007812 Z M 80.066406 50.007812 "/>
<path style=" stroke:none;fill-rule:nonzero;fill:rgb(0%,47.450981%,41.960785%);fill-opacity:1;" d="M 61.140625 33.878906 C 60.832031 33.871094 60.613281 33.910156 60.378906 33.964844 C 60.378906 33.976562 60.378906 33.992188 60.378906 34.007812 C 60.394531 34.007812 60.40625 34.007812 60.421875 34.007812 C 60.570312 34.308594 60.832031 34.507812 61.015625 34.769531 C 61.15625 35.066406 61.296875 35.359375 61.4375 35.65625 C 61.453125 35.644531 61.464844 35.628906 61.480469 35.617188 C 61.742188 35.429688 61.863281 35.136719 61.859375 34.683594 C 61.753906 34.574219 61.738281 34.433594 61.648438 34.300781 C 61.527344 34.125 61.292969 34.023438 61.140625 33.878906 Z M 61.140625 33.878906 "/>
</g>
</svg>
