<?xml version="1.0" encoding="UTF-8"?>
<svg xmlns="http://www.w3.org/2000/svg" xmlns:xlink="http://www.w3.org/1999/xlink" viewBox="0 0 96 96" width="96px" height="96px">
<g id="surface261572941">
<path style=" stroke:none;fill-rule:nonzero;fill:rgb(20%,20%,20%);fill-opacity:1;" d="M 12 96 C 5.371094 96 0 90.628906 0 84 L 0 12 C 0 5.371094 5.371094 0 12 0 L 84 0 C 90.628906 0 96 5.371094 96 12 L 96 84 C 96 90.628906 90.628906 96 84 96 Z M 12 96 "/>
<path style=" stroke:none;fill-rule:nonzero;fill:rgb(47.058824%,56.470591%,61.176473%);fill-opacity:1;" d="M 45.726562 8.75 L 48.273438 8.75 L 48.273438 24.050781 L 45.726562 24.050781 Z M 45.726562 8.75 "/>
<path style=" stroke:none;fill-rule:nonzero;fill:rgb(47.058824%,56.470591%,61.176473%);fill-opacity:1;" d="M 39.351562 15.125 L 54.648438 15.125 L 54.648438 17.675781 L 39.351562 17.675781 Z M 39.351562 15.125 "/>
<path style=" stroke:none;fill-rule:nonzero;fill:rgb(36.078432%,41.960785%,75.294119%);fill-opacity:1;" d="M 76.324219 39.351562 L 78.875 39.351562 L 78.875 54.648438 L 76.324219 54.648438 Z M 76.324219 39.351562 "/>
<path style=" stroke:none;fill-rule:nonzero;fill:rgb(36.078432%,41.960785%,75.294119%);fill-opacity:1;" d="M 69.949219 45.726562 L 85.25 45.726562 L 85.25 48.273438 L 69.949219 48.273438 Z M 69.949219 45.726562 "/>
<path style=" stroke:none;fill-rule:nonzero;fill:rgb(47.058824%,56.470591%,61.176473%);fill-opacity:1;" d="M 15.125 39.351562 L 17.675781 39.351562 L 17.675781 54.648438 L 15.125 54.648438 Z M 15.125 39.351562 "/>
<path style=" stroke:none;fill-rule:nonzero;fill:rgb(47.058824%,56.470591%,61.176473%);fill-opacity:1;" d="M 8.75 45.726562 L 24.050781 45.726562 L 24.050781 48.273438 L 8.75 48.273438 Z M 8.75 45.726562 "/>
<path style=" stroke:none;fill-rule:nonzero;fill:rgb(36.078432%,41.960785%,75.294119%);fill-opacity:1;" d="M 45.726562 69.949219 L 48.273438 69.949219 L 48.273438 85.25 L 45.726562 85.25 Z M 45.726562 69.949219 "/>
<path style=" stroke:none;fill-rule:nonzero;fill:rgb(36.078432%,41.960785%,75.294119%);fill-opacity:1;" d="M 39.351562 76.324219 L 54.648438 76.324219 L 54.648438 78.875 L 39.351562 78.875 Z M 39.351562 76.324219 "/>
<path style=" stroke:none;fill-rule:nonzero;fill:rgb(90.980393%,46.27451%,17.647059%);fill-opacity:1;" d="M 32.550781 44.449219 L 61.449219 44.449219 L 61.449219 49.550781 L 32.550781 49.550781 Z M 32.550781 44.449219 "/>
<path style=" stroke:none;fill-rule:nonzero;fill:rgb(90.980393%,46.27451%,17.647059%);fill-opacity:1;" d="M 44.449219 32.550781 L 49.550781 32.550781 L 49.550781 61.449219 L 44.449219 61.449219 Z M 44.449219 32.550781 "/>
<path style=" stroke:none;fill-rule:nonzero;fill:rgb(100%,62.7451%,0%);fill-opacity:1;" d="M 25.75 17.25 L 29.148438 17.25 L 29.148438 41.050781 L 25.75 41.050781 Z M 25.75 17.25 "/>
<path style=" stroke:none;fill-rule:nonzero;fill:rgb(100%,62.7451%,0%);fill-opacity:1;" d="M 15.550781 27.449219 L 39.351562 27.449219 L 39.351562 30.851562 L 15.550781 30.851562 Z M 15.550781 27.449219 "/>
<path style=" stroke:none;fill-rule:nonzero;fill:rgb(37.64706%,49.019608%,54.509807%);fill-opacity:1;" d="M 64.851562 17.25 L 68.25 17.25 L 68.25 41.050781 L 64.851562 41.050781 Z M 64.851562 17.25 "/>
<path style=" stroke:none;fill-rule:nonzero;fill:rgb(37.64706%,49.019608%,54.509807%);fill-opacity:1;" d="M 54.648438 27.449219 L 78.449219 27.449219 L 78.449219 30.851562 L 54.648438 30.851562 Z M 54.648438 27.449219 "/>
<path style=" stroke:none;fill-rule:nonzero;fill:rgb(77.64706%,15.686275%,15.686275%);fill-opacity:1;" d="M 25.75 52.949219 L 29.148438 52.949219 L 29.148438 76.75 L 25.75 76.75 Z M 25.75 52.949219 "/>
<path style=" stroke:none;fill-rule:nonzero;fill:rgb(77.64706%,15.686275%,15.686275%);fill-opacity:1;" d="M 15.550781 63.148438 L 39.351562 63.148438 L 39.351562 66.550781 L 15.550781 66.550781 Z M 15.550781 63.148438 "/>
<path style=" stroke:none;fill-rule:nonzero;fill:rgb(5.098039%,27.843139%,63.137257%);fill-opacity:1;" d="M 64.851562 52.949219 L 68.25 52.949219 L 68.25 76.75 L 64.851562 76.75 Z M 64.851562 52.949219 "/>
<path style=" stroke:none;fill-rule:nonzero;fill:rgb(5.098039%,27.843139%,63.137257%);fill-opacity:1;" d="M 54.648438 63.148438 L 78.449219 63.148438 L 78.449219 66.550781 L 54.648438 66.550781 Z M 54.648438 63.148438 "/>
</g>
</svg>
